<svg xmlns="http://www.w3.org/2000/svg" viewBox="0 0 81.5 77.79"><defs><style>.cls-1{fill:#a74ffc;}</style></defs><g id="Layer_2" data-name="Layer 2"><g id="Layer_1-2" data-name="Layer 1"><path d="M19.41,38.15a33.65,33.65,0,0,1,62.09-18C76.58,7.87,64.19,0,46.7,0,19.23,0,0,18.91,0,44.88,0,64.22,14.21,77.79,37.19,77.79c11,0,20.73-3.06,28.39-8.4A33.64,33.64,0,0,1,19.41,38.15Z"/><path class="cls-1" d="M53.07,14.82a23.3,23.3,0,0,0-11.29,2.92,22.31,22.31,0,0,1,3.1-.21c11.22,0,17.63,6.73,17.63,16.67,0,12.36-6.8,23-18.31,25.53a23.08,23.08,0,0,0,8.87,1.75,23.33,23.33,0,1,0,0-46.66Z"/></g></g></svg>