<svg xmlns="http://www.w3.org/2000/svg" viewBox="0 0 206.88 150"><defs><style>.cls-1{fill:#f2f2f2;}.cls-2{fill:#6c63ff;}.cls-3{fill:#ccc;}.cls-4{fill:#ffb8b8;}.cls-5{fill:#2f2e41;}.cls-6{fill:#9d5bdd;}.cls-7{fill:#3f3d56;}</style></defs><g id="Layer_2" data-name="Layer 2"><g id="Layer_1-2" data-name="Layer 1"><path class="cls-1" d="M131.85,112.47v36.06H41.51c-10.29,0-18.67-8.09-18.67-18s8.38-18,18.67-18Z"/><path class="cls-2" d="M134.06,148.16a1.43,1.43,0,0,1-1.39,1.47H39.89a19.14,19.14,0,1,1-.19-38.27h92.89a1.48,1.48,0,0,1,.08,3H40a16.4,16.4,0,0,0-16.5,17.17,16.19,16.19,0,0,0,16.16,15.21h93A1.43,1.43,0,0,1,134.06,148.16Z"/><path class="cls-3" d="M131.84,120.93H34.51c-.15-.17-.28-.29-.28-.45a.29.29,0,0,1,.28-.28h97.33a.28.28,0,0,1,.27.28C132.11,120.64,132,120.76,131.84,120.93Z"/><path class="cls-3" d="M131.84,127.55H34.51c-.15-.12-.28-.24-.28-.39a.39.39,0,0,1,.28-.34h97.33a.38.38,0,0,1,.27.34C132.11,127.31,132,127.43,131.84,127.55Z"/><path class="cls-3" d="M131.84,134.18H34.51a.43.43,0,0,1-.28-.35.55.55,0,0,1,.28-.39h97.33a.54.54,0,0,1,.27.39A.42.42,0,0,1,131.84,134.18Z"/><path class="cls-3" d="M131.84,140.8H34.51a.31.31,0,0,1-.28-.3c0-.15.13-.27.28-.43h97.33c.15.16.27.28.27.43A.3.3,0,0,1,131.84,140.8Z"/><path class="cls-1" d="M201.83,119.22l-22.68,28.15L108.63,90.55c-8-6.48-9.49-18.06-3.23-25.82s17.87-8.8,25.91-2.33Z"/><path class="cls-3" d="M181.06,148.55a1.4,1.4,0,0,1-2,.21L106.67,90.4a19,19,0,0,1,23.91-29.66L203,119.1a1.39,1.39,0,1,1-1.74,2.16h0L128.83,62.9a16.27,16.27,0,0,0-20.41,25.34l72.43,58.36A1.39,1.39,0,0,1,181.06,148.55Z"/><path class="cls-3" d="M196.6,125.72,120.81,64.66a.27.27,0,0,1,0-.39.28.28,0,0,1,.39,0h0L197,125.29a.28.28,0,0,1,0,.39.27.27,0,0,1-.39,0Z"/><path class="cls-3" d="M192.41,130.92,116.63,69.85a.28.28,0,0,1,0-.39.27.27,0,0,1,.39,0l75.79,61.06a.27.27,0,0,1,0,.39.28.28,0,0,1-.39,0Z"/><path class="cls-3" d="M188.22,136.11,112.44,75.05a.28.28,0,1,1,.35-.43l75.78,61.06a.28.28,0,1,1-.35.43Z"/><path class="cls-3" d="M184,141.31,108.25,80.25a.27.27,0,0,1,0-.39.28.28,0,0,1,.39,0h0l75.78,61.07a.28.28,0,0,1,.05.39.27.27,0,0,1-.39,0Z"/><path class="cls-3" d="M206.6,150H.28a.35.35,0,0,1-.28-.32c0-.15.12-.28.28-.42H206.6c.16.14.28.27.28.42A.35.35,0,0,1,206.6,150Z"/><polygon class="cls-4" points="93.95 108.42 90.8 108.42 89.31 96.28 93.95 96.28 93.95 108.42"/><path class="cls-5" d="M88.85,107.69h5.84v3.67H85.17a3.67,3.67,0,0,1,3.68-3.67Z"/><polygon class="cls-4" points="61.57 108.42 58.42 108.42 56.93 96.28 61.57 96.28 61.57 108.42"/><path class="cls-5" d="M56.47,107.69h5.84v3.67H52.79a3.67,3.67,0,0,1,3.68-3.67Z"/><path class="cls-5" d="M72.24,17.69V16.3a9,9,0,0,1,9-9h.05a9,9,0,0,1,9,9h0v1.39a6.48,6.48,0,0,1-6.5,6.47H78.71a6.47,6.47,0,0,1-6.47-6.47Z"/><circle class="cls-4" cx="81.12" cy="17.78" r="6.83"/><path class="cls-4" d="M44,41.25a2.61,2.61,0,0,1,3.69.11,2.48,2.48,0,0,1,.28.36l5.85-1.11L55.34,44l-8.29,1.44A2.62,2.62,0,0,1,44,41.25Z"/><path class="cls-3" d="M75.79,28.91l.08.12-9.6,6.32-16.2,5.17a1,1,0,0,0-.67,1l.35,3a1,1,0,0,0,1.08.85h.09l15.25-3.27a5.64,5.64,0,0,0,2-.9L79,33.6A2.77,2.77,0,0,0,75.87,29Z"/><path class="cls-6" d="M90.89,105.14a1.25,1.25,0,0,1-1.15-.75l-14.58-36a.42.42,0,0,0-.55-.22.45.45,0,0,0-.23.26L62.49,103.48a1.25,1.25,0,0,1-1.56.83l-.07,0-4-1.49a1.27,1.27,0,0,1-.81-1c-1.79-15.63,13.85-55.07,14-55.46l0-.11,14.26,3.15,0,0c5.69,6.21,10.37,45.35,11.25,53.13a1.26,1.26,0,0,1-.83,1.32l-3.52,1.25A1.14,1.14,0,0,1,90.89,105.14Z"/><path class="cls-3" d="M78.6,50.61c-3.45,0-7.3-.69-8.49-3.53l0-.07,0-.06c.94-1.53,2.17-4.15,1.51-4.64-1.31-1-1.95-2.56-1.89-4.74a11.4,11.4,0,0,1,8-10.42h0a33.83,33.83,0,0,1,4-1,6.8,6.8,0,0,1,8.13,6.63c0,5-.73,12.06-4.7,16.88a1.23,1.23,0,0,1-.73.43A34.2,34.2,0,0,1,78.6,50.61Z"/><path class="cls-4" d="M77.32,50.42a2.65,2.65,0,0,1,3.24-1.85,2.86,2.86,0,0,1,.41.15l4.44-4,3.09,2.08-6.35,5.63a2.66,2.66,0,0,1-3,1.28,2.62,2.62,0,0,1-1.83-3.21Z"/><path class="cls-3" d="M84.71,50.47a1.25,1.25,0,0,1-.79-.28l-1.76-1.43A1.25,1.25,0,0,1,82,47a1,1,0,0,1,.2-.2l7.36-5.64a.44.44,0,0,0,.08-.59l-4.54-6a3.68,3.68,0,0,1,.24-4.75h0a3.69,3.69,0,0,1,5-.4l0,0,4.74,6.78a4.23,4.23,0,0,1,.71,5.93A4.09,4.09,0,0,1,95,43l-9.53,7.27A1.21,1.21,0,0,1,84.71,50.47Z"/><path class="cls-5" d="M75.19,15.88V12.49l6-2.64L87,12.49v3.39a.55.55,0,0,1-.55.55H75.74A.55.55,0,0,1,75.19,15.88Z"/><path class="cls-5" d="M80.84,7.76c-.89-2.85,1-6.11,3.74-7.24A8.61,8.61,0,0,1,93,2a14.21,14.21,0,0,1,4.54,7.54,42.5,42.5,0,0,1,1,8.87,6.23,6.23,0,0,1,4.53,7.89,6.23,6.23,0,0,1-8.53,3.16,6.23,6.23,0,0,1-1.71-8.94A7.34,7.34,0,0,0,84.33,9.18C82.66,9.88,80.56,8.07,80.84,7.76Z"/><path class="cls-2" d="M42.81,28.22A29.22,29.22,0,0,1,31,25.64a1.24,1.24,0,0,1-.73-1.14V14.37a1.25,1.25,0,0,1,1.25-1.25H54.07a1.25,1.25,0,0,1,1.25,1.25V24.5a1.25,1.25,0,0,1-.74,1.14h0A29.14,29.14,0,0,1,42.81,28.22Z"/><path class="cls-2" d="M42.71,19.9a1.32,1.32,0,0,1-.48-.09L24.37,12.27a1.25,1.25,0,0,1,0-2.32L42.27,3.17a1.24,1.24,0,0,1,.89,0L60.78,10a1.25,1.25,0,0,1,0,2.32L43.2,19.8A1.16,1.16,0,0,1,42.71,19.9Z"/><circle class="cls-7" cx="32.29" cy="24.55" r="1.67"/><path class="cls-6" d="M60.89,11.2,43.27,18.73a1.14,1.14,0,0,1-.87,0L24.53,11.2a1.1,1.1,0,0,1-.53-.47,1.12,1.12,0,0,0,.41,1.52.67.67,0,0,0,.12.06L42.4,19.85a1.1,1.1,0,0,0,.87,0l17.62-7.54a1.11,1.11,0,0,0,.58-1.46.34.34,0,0,0-.06-.12A1.08,1.08,0,0,1,60.89,11.2Z"/><path class="cls-7" d="M32.43,24.54c.15,0,.28-.12.44-.28V15l9-3.34a.28.28,0,0,0,.28-.27.29.29,0,0,0-.27-.29L32.71,14.4a.57.57,0,0,0-.39.16.62.62,0,0,0-.18.4v9.3A.29.29,0,0,0,32.43,24.54Z"/></g></g></svg>