<svg xmlns="http://www.w3.org/2000/svg" viewBox="0 0 712.33 88.62"><defs><style>.cls-1{fill:#7e38b7;}</style></defs><g id="Layer_2" data-name="Layer 2"><g id="Layer_1-2" data-name="Layer 1"><path class="cls-1" d="M53.07,1.7H17L0,86.91H24.1l4.38-22.28h17c25.69,0,42.12-14,42.12-35.54C87.64,11.81,75.22,1.7,53.07,1.7ZM46.62,45.65H32.26l5-25H49.9c8.41,0,13.39,3.29,13.39,10.47C63.29,40.53,57.21,45.65,46.62,45.65Z"/><path class="cls-1" d="M176.26,28.85c0-17-12.54-27.15-34.33-27.15H105.54l-17,85.21h24.1l4.5-22.64h12.17l12.66,22.64h25.2L152.64,61.35C167.49,56.23,176.26,44.55,176.26,28.85Zm-41.14,16.8H120.75l5.11-25h12.66c8.28,0,13.39,3.29,13.39,10.47C151.91,40.53,145.7,45.65,135.12,45.65Z"/><polygon class="cls-1" points="258.54 20.33 262.31 1.7 195.61 1.7 178.57 86.91 246.86 86.91 250.75 68.28 206.08 68.28 209.12 52.7 247.1 52.7 250.63 34.69 212.78 34.69 215.57 20.33 258.54 20.33"/><path class="cls-1" d="M309.06,68.65c-13,0-20.81-7.67-20.81-19.11,0-16.8,10.95-29.58,27.51-29.58,8.52,0,14.72,3.53,18.74,10l17.41-13.87C345.82,5.72,333,0,317.34,0,285.69,0,263.9,21.54,263.9,51.12c0,22.28,16.68,37.49,42.85,37.49,15.21,0,27.75-4.26,37.37-15.82l-14.25-14C323.79,65.73,316.73,68.65,309.06,68.65Z"/><polygon class="cls-1" points="367.12 1.7 350.08 86.91 374.19 86.91 391.23 1.7 367.12 1.7"/><path class="cls-1" d="M422.75,27c0-4.62,5.36-8.28,15.34-8.28a43.83,43.83,0,0,1,23.37,6.46l8.76-17.9C462.55,2.56,451.6,0,439.55,0c-25.2,0-40.9,12.05-40.9,30.43,0,26.78,41.38,20.45,41.38,31.89,0,4.63-5.35,7.55-14.6,7.55a53.42,53.42,0,0,1-28.36-8.4l-9.5,18c7.67,5.24,20.94,9.13,35.55,9.13,24.95,0,41-12,41-30.31C464.14,32,422.63,38.71,422.75,27Z"/><polygon class="cls-1" points="487.14 1.7 470.1 86.91 494.2 86.91 511.24 1.7 487.14 1.7"/><path class="cls-1" d="M537.14,43.46A38.33,38.33,0,0,1,607.87,23c-5.6-14-19.72-23-39.65-23C536.94,0,515,21.55,515,51.13c0,22,16.19,37.49,42.36,37.49,12.58,0,23.61-3.49,32.34-9.57a38,38,0,0,1-14.24,2.76A38.4,38.4,0,0,1,537.14,43.46Z"/><path class="cls-1" d="M575.49,16.89a26.52,26.52,0,0,0-12.87,3.32,25.41,25.41,0,0,1,3.53-.24c12.79,0,20.09,7.67,20.09,19,0,14.08-7.75,26.25-20.86,29.09a26.26,26.26,0,0,0,10.11,2,26.58,26.58,0,0,0,0-53.15Z"/><polygon class="cls-1" points="688.72 1.7 679.47 48.32 651.23 1.7 631.39 1.7 614.35 86.91 637.96 86.91 647.33 40.17 675.45 86.91 695.29 86.91 712.33 1.7 688.72 1.7"/></g></g></svg>