<svg xmlns="http://www.w3.org/2000/svg" viewBox="0 0 459.55 454.25"><defs><style>.cls-1{fill:#f2f2f2;}.cls-2{fill:#e6e6e6;}.cls-3{fill:#fff;}.cls-4{fill:#6c63ff;}.cls-5{fill:#a0616a;}.cls-6{fill:#3f3d56;}.cls-7{fill:#2f2e41;}.cls-8{fill:#a74ffc;}.cls-9{fill:#ffb8b8;}.cls-10{fill:#ccc;}</style></defs><g id="Layer_2" data-name="Layer 2"><g id="Layer_1-2" data-name="Layer 1"><path class="cls-1" d="M431,83c-2.92,32.14-11.23,66-24.26,98.73-16.12,40.44-38.14,76.06-63.68,103l-1.42-1.24C367,256.64,388.93,221.18,405,180.91c14.51-36.39,23.13-74.26,25-109.5l1.81.3Q431.47,77.29,431,83Z"/><path class="cls-1" d="M442.57,269.63C406.69,326.71,363.16,367.49,320,384.47l-.87-1.6C362,366,405.26,325.44,441,268.62Z"/><path class="cls-1" d="M430.08,123c-2.92,32.14-11.23,66-24.26,98.73-16.12,40.44-38.14,76.06-63.68,103l-1.42-1.23c25.42-26.82,47.34-62.28,63.39-102.55,14.51-36.39,23.13-74.27,25-109.5l1.81.3Q430.6,117.31,430.08,123Z"/><path class="cls-2" d="M27.3,205.28H3.76A3.31,3.31,0,0,1,1.15,204a3.22,3.22,0,0,1-.64-2.77,64.1,64.1,0,0,0-.41-30,3.33,3.33,0,0,1,1.29-3.51c12.11-8.7,21.64-8.45,28.33.76a3.2,3.2,0,0,1,.59,1.41,104.57,104.57,0,0,1,.29,32.51A3.33,3.33,0,0,1,27.3,205.28Z"/><path class="cls-3" d="M20,181.23H11.91c-.94.69-1.69-.07-1.69-1a1.92,1.92,0,0,1,1.69-1.83H20a1.93,1.93,0,0,1,1.69,1.84A1.69,1.69,0,0,1,20,181.92Z"/><path class="cls-3" d="M20,186.89H11.91c-.94,1-1.69.2-1.69-.74a2.46,2.46,0,0,1,1.69-2.09H20a2.48,2.48,0,0,1,1.69,2.1A1.69,1.69,0,0,1,20,187.84Z"/><path class="cls-3" d="M20,194H11.91a2,2,0,0,1-1.69-1.89c0-.93.75-1.68,1.69-.94H20c.94-.74,1.69,0,1.69,1A1.69,1.69,0,0,1,20,193.76Z"/><path class="cls-2" d="M455.13,310H431.58A3.33,3.33,0,0,1,429,308.7a3.26,3.26,0,0,1-.64-2.77,64.1,64.1,0,0,0-.41-30,3.33,3.33,0,0,1,1.29-3.5c12.11-8.71,21.64-8.46,28.34.75a3.3,3.3,0,0,1,.58,1.41,104.87,104.87,0,0,1,.3,32.51A3.33,3.33,0,0,1,455.13,310Z"/><path class="cls-3" d="M447.83,287.33h-8.1a2.24,2.24,0,0,1-1.68-2c0-.93.75-1.68,1.68-.83h8.1c.93-.85,1.68-.09,1.68.84a1.69,1.69,0,0,1-1.68,1.69Z"/><path class="cls-3" d="M447.83,293h-8.1a1.73,1.73,0,0,1-1.68-1.73c0-.93.75-1.68,1.68-1.1h8.1c.93-.58,1.68.18,1.68,1.11a1.69,1.69,0,0,1-1.68,1.69Z"/><path class="cls-3" d="M447.83,298.64h-8.1a1.39,1.39,0,0,1-1.68-1.47,1.3,1.3,0,0,1,1.68-1.36h8.1a1.3,1.3,0,0,1,1.68,1.37,1.69,1.69,0,0,1-1.68,1.69Z"/><path class="cls-1" d="M130.32,400.64l-1.47-20.42a66,66,0,0,0-31-7c15.12,11.68,13.91,35.05,24.38,51a39.77,39.77,0,0,0,29.63,17.56l12.59,7.24a66.56,66.56,0,0,0-15.51-53.55,64,64,0,0,0-12.11-10.66C134.07,392.8,130.32,400.64,130.32,400.64Z"/><path class="cls-1" d="M396.53,403.6,398,383.18a66,66,0,0,1,31-6.95c-15.12,11.69-13.91,35-24.38,51A39.77,39.77,0,0,1,375,444.83l-12.58,7.24a66.56,66.56,0,0,1,15.5-53.55A64,64,0,0,1,390,387.86C392.78,395.76,396.53,403.6,396.53,403.6Z"/><circle class="cls-4" cx="256.76" cy="159.1" r="14.06"/><path class="cls-3" d="M264,153.23a1.16,1.16,0,0,0-1.57,0,46.7,46.7,0,0,0-8,8.16l-1.7-3.3c-.66-1.27-2.58-.15-1.92,1.12l2.5,4.82a1.11,1.11,0,0,0,1.91,0A45.37,45.37,0,0,1,264,154.8,1.12,1.12,0,0,0,264,153.23Z"/><path class="cls-5" d="M193.84,199l-21.21-33.3,24.56-13.15,6.44,25.41,45.42,24.54a9.82,9.82,0,1,1-5.59,13.36Z"/><path class="cls-6" d="M157.14,125.72c-6.67,9.79,17,45.35,17,45.35,1.16-2.49,12.18,25.44,14,23.79,5.25-4.69,13.47-17.75,18-18.33,2.61-.34-6.06-18.86-6.06-18.86s-4-10.94-9.34-24.91a25.07,25.07,0,0,0-18.23-15.94S163.8,115.94,157.14,125.72Z"/><polygon class="cls-5" points="156.81 444.35 166.71 444.35 171.42 406.15 156.81 406.15 156.81 444.35"/><path class="cls-7" d="M155.39,441.52h2.84l11.09-4.39,5.94,4.39h0a12.64,12.64,0,0,1,12.64,12.64v.09H155.39Z"/><polygon class="cls-5" points="204.91 444.35 214.81 444.35 219.52 406.15 204.91 406.15 204.91 444.35"/><path class="cls-7" d="M202.07,441.52h2.85L216,437.13l5.95,4.39h0a12.64,12.64,0,0,1,12.64,12.64v.09H202.08Z"/><path d="M208.61,232.08l-65.51,1.64c-12.44,6.76-12.63,21.39-8.55,38.75,0,0-1.38,10.32,1.37,13.08s4.13,2.75,2.76,7.56,5.89,12.69,5,13.57-2.95,5.7-2.95,5.7l6.88,39.22s4.82,68.13,6.19,69.5,2.76,0,1.38,3.44-2.75,2.07-1.38,3.44c1.22,1.32,2.37,2.7,3.45,3.64h16.63c0,.49,1.26-6.39,1.26-7.08s1.37-4.81,1.37-5.5-1.21-1.91-1.21-1.91a22.22,22.22,0,0,1-.85-4.28c0-1.38-4.13-54.36-4.13-54.36l8.26-68.82,19.95,67.44s0,59.18,1.38,60.55,1.37.69.69,3.44-3.44,2.07-1.38,4.13,2.75-1.37,2.06,2.07l-.68,2.9h20.64c0,.83,2.75-5,1.38-7s-1.3-1.5.38-4.88,2.37-4.07,1.68-4.76-.69-4.34-.69-4.34l-3.53-65.84V271.78c-.65-1.06-.45-2.12,1.41-3.09v-2.8L217.81,256Z"/><circle class="cls-5" cx="169.26" cy="75.51" r="20.35"/><path class="cls-8" d="M179.44,109.32c4.38,2.6,7,7.39,8.51,12.27a116.06,116.06,0,0,1,5,27.78l1.59,28.23,19.7,60.12C197.17,252.16,133,241,133,241s-2-.66,0-2.63,3.88-.22,1.91-2.19-.61.22.05-1.75,0-.65-.66-1.31,5.08-6.57,5.08-6.57l-5.25-34.5-6.56-69.6c7.87-9.85,23.72-15.66,23.72-15.66l4.1-7.37,20.47,1.64Z"/><path class="cls-7" d="M186,64.7a9.45,9.45,0,0,1,3.35,4.7,66.12,66.12,0,0,0,0-9.23c-.24-2.17-1.76-2.65-3.52-3.21-1.59-.51-3.39-1.09-3.88-3.19-6.39-6.22-17.53-5.91-25.15-3.74-4.2,1.2-6.61,2.73-6.83,3.63l0,.19-.17.08C146.6,55.55,146,60.65,146,64.65c.07,7.53,2.67,16.09,4.14,16.78.08,0,.1,0,.13,0h0c2.21-1.77,4.9.13,6.08,1.16a21.17,21.17,0,0,1,19-18,33.66,33.66,0,0,0,4.56-.77,9.76,9.76,0,0,1,2.34-.31A6.66,6.66,0,0,1,186,64.7Z"/><path class="cls-9" d="M312.4,248.3l39.15-39.76,10.32-31.8L345.27,170c-8.23,8.29-16.69,33.69-16.69,33.69l-26.73,35.86q-.32.12-.63.27a7.91,7.91,0,1,0,11.18,8.45Z"/><path class="cls-4" d="M340.74,173.66l21,6.08.08,0c7.72-1.5,13.82-14.32,17.58-24.81a14.5,14.5,0,0,0-7.85-18.18h0A14.54,14.54,0,0,0,356.37,139l-10.47,9Z"/><polygon class="cls-9" points="322.32 442.93 310.95 442.93 305.54 399.08 322.32 399.08 322.32 442.93"/><path class="cls-7" d="M325.15,440.1h-3.21l-12.54-4.88-6.72,4.88h-.17a14.15,14.15,0,0,0-14.14,14.15h36.78Z"/><polygon class="cls-9" points="373.24 442.93 361.87 442.93 356.46 399.08 373.24 399.08 373.24 442.93"/><path class="cls-7" d="M376.07,440.1h-3.21l-12.53-4.88-6.72,4.88h-.17a14.16,14.16,0,0,0-14.15,14.15h36.78Z"/><path d="M390.09,255.71s1.32,15.82-2,31-3.29,57.86-3.29,57.86l-7.25,83.2-21.76-2-5.93-139.09-21.09,46.8,2,6.59-2.64,1.65s2,12.86.66,12.86-4.62,2-4.62,2l2.64,67.9-22.41-.66-7.91-95.58,8.57-54.71.66-10.55,3,.12,1.51-4.4,2.78-7.59Z"/><path class="cls-8" d="M390.57,259.31l.11-.17c6.28-8.78-3.16-29.89-4.58-32.95l6-1.94-1.35-11.48-.64-5.12,4.58-4.58,0-.11,2.63-23.07,3.84-15.33a33.65,33.65,0,0,0-9.55-32.6l-8.86-8.35L372,107.67H354.62l-5.95,11.25a25.31,25.31,0,0,0-19.59,25.84l1.35,29.5L325.15,211v6.65l-5.94,6.61,1.3,6.49L316,232.68,314,242c-.82,1.09-6.28,8.37-6.28,10.36,0,.3.22.59.69.91,3.72,2.52,24.28,7.65,33.38,4,9.69-3.88,48.22,1.94,48.61,2Z"/><circle class="cls-9" cx="361.73" cy="79.25" r="23"/><path class="cls-7" d="M359.52,102.62a61,61,0,0,0,10.62-1c3.47-.8,11.12-6.71,13.21-10.21h0c1.55-2.6,2.48-6.62,3-9.53a28,28,0,0,0-5.46-22.06,8.86,8.86,0,0,0-3.65-3l-.4-.12a10.93,10.93,0,0,1-5.5-3.21,8.87,8.87,0,0,0-.93-.91,13.35,13.35,0,0,0-5.67-2.66c-3.35-.81-8.15.2-14.25,3-3.07,1.4-6.47,1-9.1.51a.83.83,0,0,0-.79.3,6,6,0,0,1-4.06,1.73c-.93.07-1.87,1.39-3,3.1-.26.39-.56.84-.78,1.12l0-.52-.52.6a7.31,7.31,0,0,0,3.61,11.82,14.05,14.05,0,0,0,2.88.39,17.56,17.56,0,0,1,1.78.16,11,11,0,0,1,8.38,6.94,2.89,2.89,0,0,0,3.73,1.65,2.64,2.64,0,0,0,.66-.36,4.75,4.75,0,0,1,4.32-.9A3.15,3.15,0,0,1,359,81a4.14,4.14,0,0,0,1.61,1.78c2.39,1.16,2.7,6.55,2,11.07-.7,4.36-2.24,7.54-3.73,7.74-1.15.14-1.28.23-1.36.44l-.07.18.13.17A4.86,4.86,0,0,0,359.52,102.62Z"/><path class="cls-9" d="M340.44,176.12,329.38,162c-11.26,3.1-31.24,20.91-31.24,20.91l-41,17.81a7.9,7.9,0,1,0,4.81,12.81l53.75-15Z"/><path d="M337.79,179.35l17.44-19.45,1-13.78A14.53,14.53,0,0,0,349,132.58h0a14.5,14.5,0,0,0-19.27,4.56c-6.16,9.29-12.79,21.85-9.38,28.93l0,.08Z"/><path class="cls-2" d="M177,252.44l-45.34-23.22c-3.23-1.65-4.3-6-2.38-9.77l29.56-57.72c1.91-3.73,6.09-5.43,9.31-3.78l45.34,23.22c3.23,1.66,4.3,6,2.38,9.77l-29.56,57.72C184.41,252.4,180.23,254.09,177,252.44Z"/><path class="cls-3" d="M169.26,241.76,138.46,226c-3-1.55-4-5.65-2.23-9.15l24.55-48c1.8-3.5,5.71-5.09,8.73-3.54l37.2,19.06c3,1.54,4,5.65,2.23,9.14l-13.34,26C187.63,235.18,182.71,248.65,169.26,241.76Z"/><path class="cls-4" d="M184.49,215.58l-27.28-14a1.7,1.7,0,0,1-.4-2.38,1.68,1.68,0,0,1,1.93-.62l27.29,14a1.7,1.7,0,0,1,.4,2.38A1.72,1.72,0,0,1,184.49,215.58Z"/><path class="cls-4" d="M160.39,210.73l-6.23-3.19a1.71,1.71,0,0,1,1.54-3l6.23,3.19a1.71,1.71,0,0,1-1.54,3Z"/><path class="cls-4" d="M168.38,222.31l-17.26-8.83a1.71,1.71,0,0,1,1.54-3l17.26,8.84a1.7,1.7,0,0,1-1.54,3Z"/><path class="cls-4" d="M195.29,194.49l-27.29-14a1.71,1.71,0,0,1,1.54-3l27.29,14a1.7,1.7,0,0,1-1.54,3Z"/><path class="cls-4" d="M171.19,189.65,165,186.46a1.71,1.71,0,0,1,1.54-3l6.23,3.19a1.71,1.71,0,0,1-1.54,3Z"/><path class="cls-4" d="M179.17,201.23l-17.25-8.83a1.71,1.71,0,0,1,1.54-3l17.25,8.84a1.7,1.7,0,0,1-1.54,3Z"/><path class="cls-5" d="M139.44,202.19l-10.25-38.14,27.37-5.18-1.47,26.18,36,37a9.82,9.82,0,1,1-9.34,11.06Z"/><path d="M126.39,121.3c-9.29,7.33,2.64,48.36,2.64,48.36,1.84-2,4,27.92,6.24,26.9,6.42-2.9,18.17-12.89,22.71-12.08,2.59.47-.13-19.8-.13-19.8s-.5-11.63-1.44-26.57a25.07,25.07,0,0,0-12.6-20.67S135.68,114,126.39,121.3Z"/><path class="cls-2" d="M281,286.82l-24.74-11.68a3.87,3.87,0,0,1-2.12-2.62,3.81,3.81,0,0,1,.7-3.24A74.35,74.35,0,0,0,269.19,238a3.84,3.84,0,0,1,3.77-3.1c12.62,0,22.05,4.65,28,13.69a3.91,3.91,0,0,1,.51,3.24,121.56,121.56,0,0,1-15.63,33.61A3.85,3.85,0,0,1,281,286.82Z"/><path class="cls-3" d="M288.26,270.44l-18.92-8.94A2,2,0,0,1,271,258h0l18.92,8.94a2,2,0,0,1-1.68,3.55Z"/><path class="cls-3" d="M291.2,264.21l-18.92-8.93a2,2,0,0,1,1.68-3.55h0l18.92,8.93a2,2,0,0,1,.93,2.62,2,2,0,0,1-2.61.93Z"/><path class="cls-1" d="M265.92,68.85l-1.76.19c-7.85-30.85-23.07-52.23-44-61.81-26.62-12.19-59.54-4-92.7,23-33.32,27.18-62.82,70.12-83.06,120.9l-1.71-.78c20.33-51,50-94.15,83.49-121.49C159.85,1.43,193.44-6.81,220.76,5.69,242.3,15.56,257.92,37.39,265.92,68.85Z"/><path class="cls-1" d="M71.64,109c-4.6,9.7-9,19.75-13,29.87-23.21,58.24-35,117.72-34,172l-1.81-.2c-1-54.49,10.83-114.17,34.12-172.59,4-10.15,8.43-20.23,13-30Z"/><path class="cls-1" d="M70.77,149.05c-4.6,9.7-9,19.75-13,29.87-23.21,58.24-35,117.72-34,172l-1.81-.19c-1-54.49,10.83-114.17,34.12-172.59,4-10.15,8.43-20.23,13-30Z"/><ellipse class="cls-10" cx="15.73" cy="159.42" rx="6.56" ry="7.55" transform="translate(-125.71 84.21) rotate(-56.36)"/><ellipse class="cls-10" cx="442.77" cy="268.28" rx="6.56" ry="7.55" transform="translate(-25.85 488.31) rotate(-56.36)"/></g></g></svg>