<svg xmlns="http://www.w3.org/2000/svg" viewBox="0 0 148.08 109.44"><defs><style>.cls-1{fill:#e6e6e6;}.cls-2{fill:#fff;}.cls-3{fill:#f2f2f2;}.cls-4{fill:#ffb8b8;}.cls-5{fill:#ffb6b6;}.cls-6{fill:#2f2e41;}.cls-7{fill:#3f3d56;}.cls-8{fill:#7e38b7;}.cls-9{fill:#cacaca;}.cls-10{fill:#6c63ff;}.cls-11{fill:#d1d3d4;}</style></defs><g id="Layer_2" data-name="Layer 2"><g id="Layer_1-2" data-name="Layer 1"><path class="cls-1" d="M105.1,80.35H25.39a2.68,2.68,0,0,1-2.68-2.68V12.74a2.68,2.68,0,0,1,2.68-2.68H105.1a2.68,2.68,0,0,1,2.67,2.68V77.67A2.68,2.68,0,0,1,105.1,80.35Z"/><path class="cls-2" d="M27.08,12a2.59,2.59,0,0,0-2.59,2.58V75.86a2.58,2.58,0,0,0,2.59,2.58H81.71a24.15,24.15,0,0,0,24.15-24.12V14.55A2.58,2.58,0,0,0,103.28,12Z"/><path class="cls-1" d="M90.44,39.48H76.05a1.14,1.14,0,0,1-1.13-1.14V31.18a1.14,1.14,0,0,1,1.13-1.13H90.44a1.14,1.14,0,0,1,1.13,1.13,9.3,9.3,0,0,1,0,7.16A1.14,1.14,0,0,1,90.44,39.48Z"/><path class="cls-2" d="M88.77,38.84H76.52a1,1,0,0,1-1-1v-6.1a1,1,0,0,1,1-1H88.77a1,1,0,0,1,1,1,7.26,7.26,0,0,1,0,6.1A1,1,0,0,1,88.77,38.84Z"/><path class="cls-1" d="M88.18,43.3H78.42a1.09,1.09,0,0,1,0-2.17h9.76a1.09,1.09,0,0,1,0,2.17Z"/><path class="cls-1" d="M81.58,32.4a.42.42,0,0,0-.42.42V37.4a.42.42,0,0,0,.42.43.37.37,0,0,0,.21-.06l4-2.31a.41.41,0,0,0,.15-.57.35.35,0,0,0-.16-.16l-4-2.28A.46.46,0,0,0,81.58,32.4Z"/><path class="cls-3" d="M140.62,100.73a1.82,1.82,0,0,0-1.93-.62l-.07,0-.68,2.65c-.1-.4-.32-1.29-.46-2.16v-.08l-.07,0a9.37,9.37,0,0,0-5.54,8.38V109l.09,0,1.93-.69a5.78,5.78,0,0,0,4.65-1.74,12.06,12.06,0,0,0,1.83-2.9c.15-.3.3-.6.46-.9A1.83,1.83,0,0,0,140.62,100.73Z"/><path class="cls-4" d="M91.35,33.12A1.4,1.4,0,0,0,93,34.23a.88.88,0,0,0,.23-.07L99,40.87l.73-2.47L94,32.26a1.4,1.4,0,0,0-2.65.86Z"/><polygon class="cls-5" points="114.65 107.48 112.74 107.48 111.83 100.09 114.65 100.09 114.65 107.48"/><path class="cls-6" d="M114.5,106.84l-2-.81-.06,0-1.12.83a2.36,2.36,0,0,0-2.38,2.34v.08H115v-2.42Z"/><polygon class="cls-5" points="128.15 107.48 126.23 107.48 125.32 100.09 128.15 100.09 128.15 107.48"/><path class="cls-6" d="M128.13,106.84l-2-.81-.06,0-1.11.83a2.36,2.36,0,0,0-2.38,2.34v.08h6.11v-2.42Z"/><path class="cls-6" d="M123.7,63.42s2.39,2.49,2.39,4.54-.6,4.85,0,5.47,1.35,1.36.45,2.26-1.34,1.35-.75,1.94.3,11.07.3,11.07l3.14,14.07h-3.95l-5-14.07L118.91,77l-4.35,11.21.48,14.64-4.14-.12-1.71-15.56s2.54-14.8,2.09-15.18,0-1.15,0-1.15l1.2-5.66Z"/><path class="cls-7" d="M119,45.79s.82-3.21-2.93-4.13-14.47-2.1-14.47-2.1l-5.42-5.74-1.83,2.66L100.43,44,114.82,47Z"/><path class="cls-1" d="M95.25,36.29a2.57,2.57,0,0,0,.39-.73l.78-1.91h-.21a2,2,0,0,0-2.35,1.6l0,.23a1.33,1.33,0,0,0,.13.71.75.75,0,0,0,.57.42A.86.86,0,0,0,95.25,36.29Z"/><path class="cls-1" d="M111.72,66l-.45,3.25s.89,1,1.34.84,2.1-.82,2.1-.82a11.92,11.92,0,0,0,3,1.18c1,.13,6.58-.6,6.73-1a14,14,0,0,1,1.89-1.78l-.69-4.12Z"/><path class="cls-8" d="M126.29,54.63s-.38,3.13-.08,3.42-.3,2.11-.9,3.3.45,1.35.45,2.25.45,4.19.45,4.19-4.64.29-5.39-.45-1.94-.15-3.59,1.49-5.22.3-6-.45.58-3.44,1-4-.43.08-.88-1.57.43-1.5,1.18-2.25,0-2.09-.6-3.44-.15-11.37-.15-13.76,3.29-2.69,3.29-2.69l1.3-1.64,1-1.2,1.88-.08h0l1.81-.07.88,1L124,41l2.24.45c1.8.59,1.35,4.33,1.35,4.33Z"/><circle class="cls-5" cx="119.18" cy="33.3" r="3.85"/><path class="cls-6" d="M123.64,32c-1.06-.65-.92-2.34-1.94-2.93a3.61,3.61,0,0,0-3.35-.15,2,2,0,0,0-2.16.5,3.59,3.59,0,0,0-1,2.19,8.19,8.19,0,0,0,.17,2.47l.17-1,3-.66-.81.73a5.57,5.57,0,0,0,4-.63c1.32.59,1.08,1.92-.08,3.68C122.19,37,124.85,32.74,123.64,32Z"/><path class="cls-1" d="M122,38.79h0a2,2,0,0,1-1.07.3,1.85,1.85,0,0,1-1.34-.42c-.2-.19-1,.2-1.49.42a2.27,2.27,0,0,1-1.68,0l1-1.2,1.58-.35h.39l1.77.2Z"/><path class="cls-9" d="M147.84,109.39l-53.53,0a.21.21,0,0,1-.23-.21.22.22,0,0,1,.23-.22h0l53.53-.06a.23.23,0,0,1,.24.22A.24.24,0,0,1,147.84,109.39Z"/><polygon class="cls-7" points="83.71 30.69 83.33 30.69 83.33 2.55 98.86 2.55 98.86 2.93 83.71 2.93 83.71 30.69"/><path class="cls-10" d="M110.87,0H100.55a2.6,2.6,0,0,0-2.61,2.46,2.54,2.54,0,0,0,2.55,2.63H110.8a2.59,2.59,0,0,0,2.62-2.46A2.55,2.55,0,0,0,110.87,0Z"/><circle class="cls-10" cx="83.32" cy="30.9" r="2.35"/><path class="cls-3" d="M55,39.74l10.32-2.39,3-.69c.37-.08.22-.65-.15-.57L57.78,38.48l-3,.69c-.37.08-.21.65.16.57Z"/><path class="cls-3" d="M65.63,33.52l5.52,2.54a1.8,1.8,0,0,1,.53.28c.15.15,0,.29-.09.42a12.14,12.14,0,0,1-1.17,1l-2.36,1.91c-.29.24.12.66.42.42l2-1.67,1-.83a2,2,0,0,0,.76-.85c.25-.79-.72-1.11-1.26-1.35l-2.4-1.11L65.93,33c-.34-.16-.65.35-.3.51Z"/><path class="cls-1" d="M141.89,52.87a6.72,6.72,0,0,0-3.35-1,37.93,37.93,0,0,0-4,0c-1.38.06-2.76.16-4.13.3s-2.74.34-4.1.57a31.35,31.35,0,0,0-3.61.79A9.86,9.86,0,0,0,119.58,55a5.52,5.52,0,0,0-1.83,2.43,4.49,4.49,0,0,0-.18,2.85,3.4,3.4,0,0,0,.67,1.24,4.59,4.59,0,0,0,1.25,1,21.22,21.22,0,0,1,3,1.61,4.17,4.17,0,0,1,.63.63,1.17,1.17,0,0,0,.51.4,1,1,0,0,0,1.12-.29,3.73,3.73,0,0,0,.44-.78l.46-.9a1.55,1.55,0,0,1,.12-.22s0,0,0,0h0l.12,0,1.3-.48c1.61-.57,3.23-1.1,4.88-1.52a22.73,22.73,0,0,1,2.58-.54c1.13-.16,2.27-.14,3.4-.25a7.87,7.87,0,0,0,3.52-1,4.55,4.55,0,0,0,1.89-2.26,3.18,3.18,0,0,0,.16-1.4A3.8,3.8,0,0,0,141.89,52.87Z"/><path class="cls-2" d="M139.87,53.47a6.08,6.08,0,0,0-3-.9,31.06,31.06,0,0,0-3.61,0c-1.25,0-2.49.14-3.73.27s-2.48.3-3.71.52a27.84,27.84,0,0,0-3.26.71,8.67,8.67,0,0,0-2.82,1.36,5.08,5.08,0,0,0-1.66,2.2,4,4,0,0,0-.16,2.57,3,3,0,0,0,.61,1.13,4.08,4.08,0,0,0,1.13.89,20.34,20.34,0,0,1,2.68,1.45,3.84,3.84,0,0,1,.57.57,1,1,0,0,0,.46.37,1,1,0,0,0,1-.26,3.28,3.28,0,0,0,.39-.71l.43-.81a1,1,0,0,1,.1-.21s0,0,0,0h0l.11,0,1.17-.43c1.46-.51,2.92-1,4.41-1.38a23.14,23.14,0,0,1,2.34-.49c1-.14,2.05-.12,3.07-.22a7.12,7.12,0,0,0,3.18-.94,4.12,4.12,0,0,0,1.71-2,2.88,2.88,0,0,0,.14-1.27A3.41,3.41,0,0,0,139.87,53.47Z"/><path class="cls-1" d="M138,54.56l-14.5,2.67a.31.31,0,0,1-.37-.25.32.32,0,0,1,.25-.38h0l14.49-2.67a.32.32,0,1,1,.12.63Z"/><path class="cls-1" d="M138.37,56.49l-14.5,2.68a.33.33,0,0,1-.38-.26.32.32,0,0,1,.26-.37h0l14.5-2.68a.32.32,0,0,1,.37.26.31.31,0,0,1-.25.37Z"/><path class="cls-1" d="M125.92,60.79l-1.69.32a.33.33,0,1,1-.12-.64l1.69-.31a.32.32,0,0,1,.37.26A.32.32,0,0,1,125.92,60.79Z"/><circle class="cls-11" cx="124.44" cy="67.5" r="1.36"/><path class="cls-1" d="M49.71,39.09H37.35a2.16,2.16,0,0,1-2.16-2.16V28.78a2.17,2.17,0,0,1,2.16-2.17H49.71a2.17,2.17,0,0,1,2.16,2.17v8.15A2.16,2.16,0,0,1,49.71,39.09Z"/><path class="cls-2" d="M48.33,38.71H37.58a1.88,1.88,0,0,1-1.88-1.88V29.77a1.88,1.88,0,0,1,1.88-1.88H48.33a1.89,1.89,0,0,1,1.89,1.88v7.06A1.89,1.89,0,0,1,48.33,38.71Z"/><path class="cls-1" d="M51.41,46.48H35.52a.38.38,0,0,1,0-.76H51.41a.38.38,0,0,1,0,.76Z"/><path class="cls-1" d="M51.41,44.32H35.52a.39.39,0,0,1-.37-.39.37.37,0,0,1,.37-.38H51.41a.38.38,0,0,1,.37.38A.39.39,0,0,1,51.41,44.32Z"/><path class="cls-1" d="M51.41,48.65H35.54a.39.39,0,0,1,0-.77H51.39a.38.38,0,0,1,.37.26A.39.39,0,0,1,51.41,48.65Z"/><path class="cls-1" d="M51.41,50.68H35.54a.37.37,0,0,1-.37-.26.37.37,0,0,1,.35-.5H51.39a.38.38,0,0,1,0,.76Z"/><path class="cls-1" d="M51.41,52.85H35.54a.37.37,0,0,1-.37-.26.38.38,0,0,1,.35-.51H51.39a.38.38,0,0,1,.37.26A.38.38,0,0,1,51.41,52.85Z"/><path class="cls-1" d="M51.41,55H35.52a.38.38,0,0,1,0-.76H51.41a.38.38,0,0,1,0,.76Z"/><polygon class="cls-7" points="42.7 50.05 43.08 50.05 43.08 65.2 14.56 65.2 14.56 64.82 42.7 64.82 42.7 50.05"/><path class="cls-10" d="M2.55,67.75H12.86a2.6,2.6,0,0,0,2.62-2.46,2.56,2.56,0,0,0-2.55-2.64H2.61A2.6,2.6,0,0,0,0,65.11a2.55,2.55,0,0,0,2.55,2.64Z"/><circle class="cls-10" cx="43.14" cy="48.89" r="2.35"/><path class="cls-3" d="M55.3,49.54c3.46.73,2.58.88,6,1.61l3,.63c.37.08.47-.5.1-.58-3.46-.73-2.58-.88-6-1.61l-3-.63c-.37-.08-.47.5-.1.58Z"/><path class="cls-3" d="M63.26,47.82l3.93,4.64a2.15,2.15,0,0,1,.36.48c.07.2-.09.28-.26.35a12.35,12.35,0,0,1-1.48.38l-2.94.74c-.37.09-.17.65.2.56l2.56-.65L66.91,54a2,2,0,0,0,1-.45c.56-.61-.18-1.31-.57-1.76l-1.71-2-1.93-2.28c-.25-.29-.74,0-.49.33Z"/><circle class="cls-1" cx="75.73" cy="62.58" r="5.47"/><circle class="cls-2" cx="75.19" cy="63.2" r="4.16"/><path class="cls-1" d="M74.45,66.09a.6.6,0,0,1-.49-.24l-1.49-2a.61.61,0,1,1,1-.73h0l1,1.3,2.49-3.74a.62.62,0,0,1,.75-.25.61.61,0,0,1,.28.9h0l-3,4.49a.59.59,0,0,1-.49.26Z"/><path class="cls-4" d="M126.82,68.22a1.4,1.4,0,0,0,.5-1.92,1.3,1.3,0,0,0-.15-.2l4.4-7.67-2.58.14L125.12,66a1.4,1.4,0,0,0,1.7,2.21Z"/><path class="cls-7" d="M121.87,41.31s4.66-1.5,5.85,2.09,5.22,13.31,5.22,13.31l-4.32,8.83-1.94-2.09,2.07-6.14-6-9Z"/><path class="cls-1" d="M128.77,64.64a2.47,2.47,0,0,0-.53-.63l-1.48-1.43-.08.19a2,2,0,0,0,.62,2.78l.2.11a1.32,1.32,0,0,0,.71.14.76.76,0,0,0,.59-.37A.85.85,0,0,0,128.77,64.64Z"/><polygon class="cls-7" points="75.68 69.91 75.3 69.91 75.3 85.06 88.67 85.06 88.67 84.68 75.68 84.68 75.68 69.91"/><path class="cls-10" d="M103.18,85.07a2.55,2.55,0,0,0-2.55-2.55H90.32A2.59,2.59,0,0,0,87.7,85a2.55,2.55,0,0,0,2.55,2.63h10.38A2.55,2.55,0,0,0,103.18,85.07Z"/><circle class="cls-10" cx="75.21" cy="68.73" r="2.35"/></g></g></svg>