<svg xmlns="http://www.w3.org/2000/svg" viewBox="0 0 625.33 77.8"><defs><style>.cls-1{fill:#fff;}</style></defs><g id="Layer_2" data-name="Layer 2"><g id="Layer_1-2" data-name="Layer 1"><path class="cls-1" d="M46.59,1.5H15L0,76.29H21.16L25,56.74H40c22.55,0,37-12.29,37-31.2C76.94,10.36,66,1.5,46.59,1.5ZM40.93,40.07H28.32L32.7,18.16H43.81c7.37,0,11.75,2.89,11.75,9.19C55.56,35.58,50.22,40.07,40.93,40.07Z"/><path class="cls-1" d="M154.73,25.32c0-15-11-23.82-30.13-23.82H92.65l-15,74.79H98.84l4-19.87h10.68L124.6,76.29h22.12L134,53.85C147,49.37,154.73,39.11,154.73,25.32ZM118.61,40.07H106l4.49-21.91H121.6c7.27,0,11.76,2.89,11.76,9.19C133.36,35.58,127.91,40.07,118.61,40.07Z"/><polygon class="cls-1" points="226.96 17.84 230.28 1.5 171.72 1.5 156.76 76.29 216.71 76.29 220.13 59.95 180.91 59.95 183.58 46.27 216.92 46.27 220.02 30.45 186.79 30.45 189.25 17.84 226.96 17.84"/><path class="cls-1" d="M271.31,60.26c-11.43,0-18.27-6.73-18.27-16.77,0-14.75,9.62-26,24.15-26,7.48,0,12.93,3.1,16.46,8.77L308.93,14.1C303.59,5,292.37,0,278.58,0c-27.78,0-46.91,18.91-46.91,44.88,0,19.55,14.64,32.91,37.61,32.91,13.36,0,24.37-3.74,32.81-13.89l-12.5-12.29C284.24,57.7,278.05,60.26,271.31,60.26Z"/><polygon class="cls-1" points="322.29 1.5 307.33 76.29 328.48 76.29 343.44 1.5 322.29 1.5"/><path class="cls-1" d="M371.12,23.72c0-4.06,4.7-7.27,13.46-7.27a38.49,38.49,0,0,1,20.52,5.67l7.69-15.71C406.06,2.24,396.44,0,385.86,0,363.75,0,350,10.58,350,26.71c0,23.51,36.33,18,36.33,28,0,4.06-4.7,6.62-12.82,6.62A46.93,46.93,0,0,1,348.57,54l-8.33,15.82c6.73,4.59,18.38,8,31.2,8,21.9,0,36-10.58,36-26.61C407.45,28.1,371,34,371.12,23.72Z"/><polygon class="cls-1" points="427.65 1.5 412.69 76.29 433.84 76.29 448.8 1.5 427.65 1.5"/><path class="cls-1" d="M471.54,38.15a33.64,33.64,0,0,1,62.08-18C528.71,7.88,516.31,0,498.82,0c-27.46,0-46.69,18.91-46.69,44.88,0,19.34,14.21,32.91,37.18,32.91,11.05,0,20.73-3.06,28.39-8.41a33.17,33.17,0,0,1-12.5,2.42A33.7,33.7,0,0,1,471.54,38.15Z"/><path class="cls-1" d="M505.2,14.82a23.27,23.27,0,0,0-11.29,2.92,22.31,22.31,0,0,1,3.1-.21c11.22,0,17.63,6.73,17.63,16.67,0,12.36-6.8,23-18.31,25.54a23,23,0,0,0,8.87,1.74,23.33,23.33,0,0,0,0-46.66Z"/><polygon class="cls-1" points="604.6 1.5 596.48 42.42 571.69 1.5 554.27 1.5 539.31 76.29 560.04 76.29 568.27 35.26 592.96 76.29 610.37 76.29 625.33 1.5 604.6 1.5"/></g></g></svg>