<svg xmlns="http://www.w3.org/2000/svg" viewBox="0 0 280.1 194.88"><defs><style>.cls-1{fill:#e6e6e6;}.cls-2{fill:#2f2e41;}.cls-3{fill:#a74ffc;}.cls-4{fill:#fff;}.cls-5{fill:#ffb8b8;}</style></defs><g id="Layer_2" data-name="Layer 2"><g id="Layer_1-2" data-name="Layer 1"><text/><ellipse class="cls-1" cx="55.81" cy="190.64" rx="55.81" ry="4.24"/><path class="cls-2" d="M42.66,43.24c9.71-4.13,21.81-1.51,33.62.3.11-2.2,1.44-4.87,0-6.41-1.7-1.86-1.54-3.82-.52-5.79,2.61-5-1.13-10.4-4.91-14.86a8.36,8.36,0,0,0-7-2.93l-7,.5a8.36,8.36,0,0,0-7.43,6h0c-1.67,2.27-2.57,4.53-2,6.78-2.5,1.71-2.92,3.78-1.8,6.1a3.52,3.52,0,0,1,0,4.28A19.51,19.51,0,0,0,42.72,43Z"/><path class="cls-2" d="M273.46,168.63H75.51A6.64,6.64,0,0,1,68.88,162h0q107.63-12.51,211.22,0h0a6.65,6.65,0,0,1-6.64,6.64Z"/><path class="cls-3" d="M280.09,162,69,161.58l24.46-41.14.12-.19V29.57A8.38,8.38,0,0,1,102,21.19H246a8.38,8.38,0,0,1,8.38,8.38h0v91.3Z"/><path class="cls-4" d="M101.52,27.11a2.74,2.74,0,0,0-2.74,2.73v82.84a2.74,2.74,0,0,0,2.74,2.74H247.18a2.74,2.74,0,0,0,2.73-2.74V29.84a2.73,2.73,0,0,0-2.73-2.73Z"/><path class="cls-2" d="M101.88,126.13a1.19,1.19,0,0,0-1.07.69l-7.58,16.49A1.18,1.18,0,0,0,94.3,145H253.77a1.22,1.22,0,0,0,.93-.41,1.2,1.2,0,0,0,.16-1.3l-8.25-16.49a1.17,1.17,0,0,0-1.05-.65Z"/><circle class="cls-4" cx="173.9" cy="24.01" r="1.76"/><path class="cls-2" d="M158.54,148.3a1.16,1.16,0,0,0-1.12.86L155.57,156a1.2,1.2,0,0,0,.13,1,1.17,1.17,0,0,0,1,.52H192.1a1.22,1.22,0,0,0,.94-.42,1.19,1.19,0,0,0,.2-1.11l-2.4-6.93a1.15,1.15,0,0,0-1.09-.78Z"/><polygon class="cls-2" points="254.34 119.11 254.34 120.59 93.49 120.59 93.61 120.41 93.61 119.11 254.34 119.11"/><circle class="cls-3" cx="249.84" cy="27.33" r="27.33"/><path class="cls-4" d="M261.27,39.3H238.54A1.55,1.55,0,0,1,237,37.75V24.22a1.55,1.55,0,0,1,1.56-1.55h22.73a1.56,1.56,0,0,1,1.57,1.55V37.75A1.56,1.56,0,0,1,261.27,39.3ZM238.45,24.15V37.82H261V24.15Z"/><path class="cls-4" d="M256.93,24.15h-14V17.9c0-4.52,3-7.81,7-7.81s7,3.29,7,7.81ZM244.37,22.3h11.08V17.62c0-3.68-2.28-6.25-5.54-6.25s-5.54,2.57-5.54,6.25Z"/><circle class="cls-4" cx="249.84" cy="30.45" r="1.56"/><path class="cls-5" d="M93.08,73.58,72.27,84.64,72,75.43a62,62,0,0,0,19.23-6.32l2.17-5.38a3.65,3.65,0,0,1,4.75-2,3.71,3.71,0,0,1,1.45,1.06h0a3.65,3.65,0,0,1-.33,5Z"/><path class="cls-2" d="M42.24,137.45h0a4.15,4.15,0,0,1,.52-3.31l4.57-7a8,8,0,0,1,10.36-2.73h0c-1.92,3.27-1.65,6.14.67,8.63a41.54,41.54,0,0,0-9.87,6.73,4.09,4.09,0,0,1-5.68-1.08A4,4,0,0,1,42.24,137.45Z"/><path class="cls-2" d="M94,128.24h0a7.86,7.86,0,0,1-6.67,3.8L57,132.27l-1.32-7.63,13.43-4L57.79,112,70.17,97.51l22.48,21A7.84,7.84,0,0,1,94,128.24Z"/><path class="cls-2" d="M52.26,180.45H45.15c-6.39-43.76-12.89-87.65,6.32-104l22.65,3.69-2.9,19.23L58.58,113.82Z"/><path class="cls-2" d="M58.51,190.42h0a4.07,4.07,0,0,1-3.31-.52l-7.72-1a8,8,0,0,1-2.73-10.36h0c3.27,1.92,6.13,1.65,8.63-.66,1.76,3.55,4.66,3.34,7.43,6.33a4.09,4.09,0,0,1-2.3,6.25Z"/><path class="cls-5" d="M69.11,47.25,56,44.09c2.18-4.48,2.36-9.46,1.31-14.75l9-.26A69.06,69.06,0,0,0,69.11,47.25Z"/><path class="cls-3" d="M72.73,88.1c-9.58,6.53-16.36.22-21.52-9.51.71-6-.45-13.09-2.6-20.83a14.18,14.18,0,0,1,8.65-17.1h0L68.59,45.4c9.61,7.84,11.5,16.33,7.9,25.29Z"/><path class="cls-5" d="M45.15,53.83,34.61,59.36l18.7,11.06,2.6,6.42A3.39,3.39,0,0,1,54,81.27l-.17.07h0a3.41,3.41,0,0,1-4.33-2.11,3.5,3.5,0,0,1-.18-.91l-.26-4.47L25.33,66a5.51,5.51,0,0,1-3.48-3.39h0a5.54,5.54,0,0,1,2.08-6.46L43,43Z"/><path class="cls-3" d="M55.55,55.41c-4.39-1.37-8.39.12-13.43,1.32l-.79-10c5-1.9,9.78-2.42,14.22-.94Z"/><circle class="cls-5" cx="60.94" cy="27.58" r="8.41"/><path class="cls-2" d="M71,26.52c-8.33.82-14.67-.55-18.72-4.42V19h18Z"/><path class="cls-3" d="M131.58,65.79h-5.26l-2.49,12.44h3.52L128,75h2.49c3.74,0,6.14-2,6.14-5.19C136.62,67.27,134.81,65.79,131.58,65.79Zm-.94,6.42h-2.1l.73-3.65h1.84c1.23,0,2,.48,2,1.53C133.07,71.46,132.18,72.21,130.64,72.21Z"/><path class="cls-3" d="M149.56,69.75c0-2.48-1.83-4-5-4h-5.31l-2.49,12.44h3.52l.66-3.31h1.77l1.85,3.31h3.68l-2.12-3.73A4.81,4.81,0,0,0,149.56,69.75Zm-6,2.46h-2.1l.74-3.65h1.85c1.21,0,2,.48,2,1.53C146,71.46,145.1,72.21,143.56,72.21Z"/><polygon class="cls-3" points="161.57 68.51 162.13 65.79 152.39 65.79 149.9 78.23 159.87 78.23 160.44 75.51 153.92 75.51 154.36 73.24 159.9 73.24 160.42 70.61 154.89 70.61 155.3 68.51 161.57 68.51"/><path class="cls-3" d="M169,75.56a2.72,2.72,0,0,1-3-2.79,4,4,0,0,1,4-4.31,3,3,0,0,1,2.73,1.45l2.55-2c-.89-1.51-2.76-2.35-5.05-2.35-4.62,0-7.8,3.15-7.8,7.47,0,3.25,2.43,5.47,6.25,5.47a6.61,6.61,0,0,0,5.46-2.31l-2.08-2A3.88,3.88,0,0,1,169,75.56Z"/><polygon class="cls-3" points="177.43 65.79 174.94 78.23 178.46 78.23 180.95 65.79 177.43 65.79"/><path class="cls-3" d="M185.55,69.49c0-.68.78-1.21,2.24-1.21a6.43,6.43,0,0,1,3.41.94l1.28-2.61A8.63,8.63,0,0,0,188,65.54c-3.68,0-6,1.76-6,4.44,0,3.91,6,3,6,4.66,0,.68-.78,1.1-2.13,1.1a7.79,7.79,0,0,1-4.14-1.22l-1.39,2.63a9.77,9.77,0,0,0,5.19,1.33c3.64,0,6-1.76,6-4.43C191.59,70.22,185.53,71.19,185.55,69.49Z"/><polygon class="cls-3" points="194.95 65.79 192.46 78.23 195.98 78.23 198.47 65.79 194.95 65.79"/><path class="cls-3" d="M202.25,71.89a5.59,5.59,0,0,1,10.32-3c-.81-2.05-2.88-3.36-5.78-3.36-4.57,0-7.77,3.15-7.77,7.47,0,3.21,2.36,5.47,6.18,5.47a8.19,8.19,0,0,0,4.73-1.4,5.6,5.6,0,0,1-7.68-5.19Z"/><path class="cls-3" d="M207.85,68a3.86,3.86,0,0,0-1.88.48,4.24,4.24,0,0,1,.51,0,2.65,2.65,0,0,1,2.94,2.77,4.11,4.11,0,0,1-3,4.25A3.88,3.88,0,1,0,207.85,68Z"/><polygon class="cls-3" points="224.38 65.79 223.03 72.6 218.9 65.79 216.01 65.79 213.52 78.23 216.97 78.23 218.34 71.41 222.44 78.23 225.34 78.23 227.82 65.79 224.38 65.79"/></g></g></svg>