<svg xmlns="http://www.w3.org/2000/svg" viewBox="0 0 113.48 100.3"><defs><style>.cls-1{fill:#a0616a;}.cls-2{fill:#6c63ff;}.cls-3{fill:#f2f2f2;}.cls-4{fill:#e6e6e6;}.cls-5{fill:#fff;}.cls-6{fill:#a74ffc;}.cls-7{fill:#2f2e41;}.cls-8{fill:#cacaca;}</style></defs><g id="Layer_2" data-name="Layer 2"><g id="Layer_1-2" data-name="Layer 1"><path class="cls-1" d="M87.9,64.2a1.32,1.32,0,0,1,.48-1.8,1,1,0,0,1,.21-.09l-.07-4.67,2,1.31-.24,4.23a1.32,1.32,0,0,1-2.42,1Z"/><path class="cls-2" d="M85.44,38.87a2.68,2.68,0,0,0-2.2,2.56c0,1.37.43,1.88,1.07,2.06,1.19.34,3.09,7.22,3.09,7.22s.2,6.41.52,6.1,0,.42.06.64-.47.57.07.82.2,2.3.2,2.3l2.38-.17s-.4-1.66.14-1.77.29-.57.08-.93.38-.87.08-1,.55-6.8.55-6.8l-3.32-9.78A2.68,2.68,0,0,0,85.44,38.87Z"/><polygon class="cls-2" points="78.22 39.34 79.93 36.34 82.24 36.34 83.98 39.51 78.22 39.34"/><path class="cls-3" d="M73.62,12.2A11.76,11.76,0,0,0,63.7,4h-.15l-.2,0a29.58,29.58,0,0,0-19.14,4.2,34.33,34.33,0,0,1-17.93,5.14h-.4A11.71,11.71,0,0,0,15.41,21.7,1.39,1.39,0,0,0,16,23.21a6.07,6.07,0,0,0,2.48,1.25c1.86.39,3.74.76,5.61,1.09V18.08a2.68,2.68,0,0,1,2.67-2.67h36.7a2.68,2.68,0,0,1,2.67,2.67v9.3a11.5,11.5,0,0,0,1.47-.58A11.3,11.3,0,0,0,72,23,12.84,12.84,0,0,0,73.62,12.2Z"/><path class="cls-3" d="M58.17,55.92H25.79A2.81,2.81,0,0,1,23,53.11V40.54a29.4,29.4,0,0,0-12.19-1.07l-.2.05a.75.75,0,0,0-.15,0,11.73,11.73,0,0,0-9.9,8.23A12.88,12.88,0,0,0,2.14,58.53a11.45,11.45,0,0,0,4.38,3.82c2.43,1.17,5,1.26,7.64,1.34A172.56,172.56,0,0,0,38,62.79q5.85-.63,11.64-1.64,3-.52,5.92-1.14A6,6,0,0,0,58,58.75a1.37,1.37,0,0,0,.61-1.5A11.08,11.08,0,0,0,58.17,55.92Z"/><path class="cls-4" d="M61,52.31H29.28A2.31,2.31,0,0,1,27,50V20.39a2.3,2.3,0,0,1,2.31-2.31H61a2.3,2.3,0,0,1,2.3,2.31V50A2.31,2.31,0,0,1,61,52.31Z"/><path class="cls-5" d="M54.33,50.6H30.8a2.31,2.31,0,0,1-2.31-2.31V21.91A2.3,2.3,0,0,1,30.8,19.6H59.46a2.3,2.3,0,0,1,2.31,2.31V43.17A7.44,7.44,0,0,1,54.33,50.6Z"/><circle class="cls-6" cx="45.17" cy="35.17" r="10.37"/><path class="cls-5" d="M49.68,34.64l-3.57-4.33a.89.89,0,0,0-.48-.33,1.09,1.09,0,0,0-1.1.32l-3.79,4.31a1,1,0,0,0,.1,1.48,1,1,0,0,0,1.47-.1l2-2.23v5.65a1,1,0,0,0,.5.86,1.07,1.07,0,0,0,1.6-.91V33.91L48.1,36a1,1,0,0,0,.92.34,1.06,1.06,0,0,0,.66-1.71Z"/><polygon class="cls-1" points="89.92 98.34 88.39 98.34 87.67 92.44 89.92 92.44 89.92 98.34"/><path class="cls-7" d="M89.92,99.86H85.17V99.8A1.84,1.84,0,0,1,87,98h0l.87-.66,1.62.66h.41Z"/><polygon class="cls-1" points="78.32 98.34 76.79 98.34 76.06 92.44 78.32 92.44 78.32 98.34"/><path class="cls-7" d="M78.32,99.86H73.56V99.8A1.84,1.84,0,0,1,75.41,98h0l.86-.66L77.9,98h.42Z"/><path class="cls-6" d="M90.35,93.49c.56-.37.23-.34.23-.34S89.33,83,88.37,79.89l-1.1-15s-.07.3,0-.43.58-.22.07-.73-.85-.77-.51-1.15,1.28-1.15.72-1.61-1.64-3.5-1.64-3.5l-10.63.08.43-.08s-1.33-.5-.72.14-.34,2.21-.68,3.74c-.28,1.27-1.12,1.61,0,1.87s.11,1,.11,1-1.69,8-.41,13.28c0,0,.88,13,1.32,14.15s.62.44.45,1.12-.51-.51-.17.68a17.45,17.45,0,0,1,.44,1.9l2.3-.17s.54-1.69,0-2.14-.16.85.42-.13-.1-.65-.27-2,1.39-7.69.27-11.58l2.07-10.91,3.28,11.3S85.87,93.51,86.43,94s.34-.7.57.48.75.88.74,1c-.16,1.56,2.61,0,2.61,0a7.88,7.88,0,0,1,0-1.19C90.4,94,89.79,93.86,90.35,93.49Z"/><path d="M78.25,64.29c-.68,0-2.55-.92-2.21-1.31a4.39,4.39,0,0,0,.34-2c0-.38,1.53-14.15,1.53-14.15l-.12-3.37a1.52,1.52,0,0,1,1.46-1.56h0l1.5-.51,4.25-.17,2.12.68a1.23,1.23,0,0,1,1.23,1.23,1.19,1.19,0,0,1-.14.56h0a11.07,11.07,0,0,1,1.63,6.11c0,1.61-.87,3.58-1.06,5.4,0,.16,0,.32,0,.47s-.35.27,0,.13-.19.34,0,.61.53.11,0,.45.62,3.63.51,3.74c-.34.34-1,.51-.51,1s1,.17.34.85a19.82,19.82,0,0,1-2.72,1.87Z"/><circle class="cls-1" cx="80.89" cy="32.16" r="3.66"/><path class="cls-1" d="M58.61,43.51a1.32,1.32,0,0,1,1.73.67.81.81,0,0,1,.07.22l4.65.44-1.52,1.89L59.36,46a1.32,1.32,0,0,1-.75-2.51Z"/><path class="cls-2" d="M80.63,40.78a2.67,2.67,0,0,0-2.56-2.19c-1.37,0-1.88.43-2.06,1.07C75.67,40.85,70.2,45,70.2,45l-4.71-.51c-.28-.09-.14-.35-1.21-.13a1,1,0,0,0-1.15-.12l-1.74-.19.17,2.72s1.86-.44,2.21.34.27.89,1,.34.68,0,.68,0l5.44,1.36,8.51-5.34a2.65,2.65,0,0,0,1.21-2.72Z"/><path class="cls-7" d="M82.31,35.42l.24.08c-.75.06-2.08.48-2,.25s-.37-1.1-.12-1.21a1.53,1.53,0,0,0,.65-.45.49.49,0,0,0-.08-.69c-.23-.13-.5,0-.72.14s-.64-1.77-.53-2.37c-.62-.34-1.37.31-2.07.19a1.37,1.37,0,0,1-.93-.83,2.67,2.67,0,0,0,.69-1.09,3.58,3.58,0,0,1-.94.31,2.24,2.24,0,0,1,0-.93,1.52,1.52,0,0,1,1-1.08,1.1,1.1,0,0,1,1.29.48,1.1,1.1,0,0,0-.69-1.09,1.15,1.15,0,0,1,1.55.49,1.06,1.06,0,0,1,.1.3,3.55,3.55,0,0,1,2.48-.27,6.65,6.65,0,0,1,1.92,1.13C86,29.19,85.94,36.25,82.31,35.42Z"/><path class="cls-3" d="M101.72,98.4a.19.19,0,0,0,.21-.19.23.23,0,0,0-.06-.16l0-.06h0a.52.52,0,0,1,.32-.31.55.55,0,0,1,.69.31,4.74,4.74,0,0,1,.43,1.23,1.32,1.32,0,0,1,0,.56,6.38,6.38,0,0,0,.6-2.72,5.48,5.48,0,0,0,0-.7,5.62,5.62,0,0,0-.09-.57,6.68,6.68,0,0,0-1.31-2.8,1.73,1.73,0,0,1-.73-.76,1.23,1.23,0,0,1-.12-.37,1.8,1.8,0,0,0,.1-.57c0-.07.14-.11.2-.18.27-.37.64-.31.83.19.42.21.42.56.16.89s-.18.5-.32.73l0,0a7.05,7.05,0,0,1,.7,1.1,2.8,2.8,0,0,1,.16-1.28,4.78,4.78,0,0,1,.72-1,.55.55,0,0,1,.79-.1.57.57,0,0,1,.22.37v0a.41.41,0,0,0-.11.07.27.27,0,0,0-.08.38.29.29,0,0,0,.19.13h0a3,3,0,0,1-.08.41c.34,1.31-.41,1.78-1.46,1.79l0,0a6.77,6.77,0,0,1,.37,1.72,6,6,0,0,1,0,1h0a1.66,1.66,0,0,1,.58-1,12.09,12.09,0,0,1,1.56-.8.32.32,0,0,1,.44.09.34.34,0,0,1,.05.22h0l-.21.1-.12.07a.28.28,0,0,0-.07.39.28.28,0,0,0,.19.12h0a2.48,2.48,0,0,1-.51.8c-.21,1.13-1.1,1.24-2.07.91h0a6.94,6.94,0,0,1-.45,1.33h-1.63s0,0,0-.06a1.7,1.7,0,0,0,.45,0l-.36-.45h0l-.18-.22-.08-.24a.4.4,0,0,1,.16-.46Z"/><path class="cls-8" d="M47,100.24l66.25.06a.22.22,0,0,0,0-.44L47,99.8a.22.22,0,0,0,0,.44Z"/><path class="cls-3" d="M43.64,71.79a2.41,2.41,0,1,1,2.41-2.41h0A2.41,2.41,0,0,1,43.64,71.79Zm0-4.47a2.07,2.07,0,1,0,2.07,2.06h0A2.07,2.07,0,0,0,43.64,67.32Z"/><path class="cls-3" d="M44.59,69.27l-.75-.91a.23.23,0,0,0-.31,0s0,0,0,0l-.8.91a.22.22,0,1,0,.33.29l.47-.47v1.17c-.06.12,0,.22.16.22a.22.22,0,0,0,.22-.22h0V69.12l.36.43a.22.22,0,0,0,.31,0,.23.23,0,0,0,0-.31Z"/><path class="cls-3" d="M71,36.26a2.41,2.41,0,1,1,2.41-2.41h0A2.41,2.41,0,0,1,71,36.26Zm0-4.47a2.07,2.07,0,1,0,2.07,2.06h0A2.07,2.07,0,0,0,71,31.79Z"/><path class="cls-3" d="M72,33.74l-.75-.91a.23.23,0,0,0-.31,0l0,0-.79.91a.22.22,0,0,0,.33.29l.49-.47v1.17c-.08.13,0,.22.14.22a.25.25,0,0,0,.24-.22h0V33.59l.34.43a.22.22,0,0,0,.31,0,.23.23,0,0,0,0-.31Z"/><path class="cls-3" d="M16.78,34.22a2.41,2.41,0,1,1,2.41-2.41h0A2.41,2.41,0,0,1,16.78,34.22Zm0-4.47a2.07,2.07,0,1,0,2.07,2.06h0a2.07,2.07,0,0,0-2.07-2.06Z"/><path class="cls-3" d="M17.73,31.7,17,30.79a.23.23,0,0,0-.31,0l0,0-.8.91a.22.22,0,0,0,.33.29l.52-.47v1.17c-.11.13,0,.22.11.22a.31.31,0,0,0,.27-.22V31.55l.31.43a.22.22,0,0,0,.31,0,.23.23,0,0,0,0-.31Z"/><path class="cls-3" d="M36,4.81A2.41,2.41,0,1,1,38.4,2.4h0A2.41,2.41,0,0,1,36,4.81ZM36,.34A2.07,2.07,0,1,0,38.06,2.4h0A2.07,2.07,0,0,0,36,.34Z"/><path class="cls-3" d="M36.94,2.29l-.75-.9a.21.21,0,0,0-.31,0,0,0,0,0,0,0,0l-.8.91a.22.22,0,1,0,.33.29l.52-.47V3.28c-.11.13,0,.22.11.22a.31.31,0,0,0,.27-.22V2.14l.31.43a.21.21,0,0,0,.31,0,.23.23,0,0,0,0-.31Z"/><path class="cls-5" d="M10.32,52.07a2.41,2.41,0,1,1,2.41-2.41h0A2.41,2.41,0,0,1,10.32,52.07Zm0-4.47a2.07,2.07,0,1,0,2.07,2.06,2.06,2.06,0,0,0-2.07-2.06Z"/><path class="cls-5" d="M11.27,49.55l-.75-.91a.23.23,0,0,0-.31,0l0,0-.8.91a.22.22,0,0,0,.33.29l.51-.47v1.17c-.1.13,0,.22.12.22a.3.3,0,0,0,.26-.22V49.4l.32.43a.22.22,0,0,0,.31,0,.23.23,0,0,0,0-.31Z"/><path class="cls-5" d="M62.34,11.78a2.41,2.41,0,1,1,2.41-2.41h0A2.41,2.41,0,0,1,62.34,11.78Zm0-4.47a2.07,2.07,0,1,0,2.07,2.06A2.06,2.06,0,0,0,62.34,7.31Z"/><path class="cls-5" d="M63.29,9.26l-.75-.9a.21.21,0,0,0-.31,0l0,0-.79.91a.22.22,0,0,0,.33.29l.41-.47v1.17a.22.22,0,0,0,.22.22c.12,0,.22-.09.16-.22h0V9.11l.42.43a.21.21,0,0,0,.31,0,.23.23,0,0,0,0-.31Z"/></g></g></svg>