<svg xmlns="http://www.w3.org/2000/svg" viewBox="0 0 131.82 95"><defs><style>.cls-1{fill:#ccc;}.cls-2{fill:#fff;}.cls-3{fill:#f2f2f2;}.cls-4{fill:#e6e6e6;}.cls-5{fill:#ffb8b8;}.cls-6{fill:#ffb6b6;}.cls-7{fill:#2f2e41;}.cls-8{fill:#9d5bdd;}.cls-9{fill:#3f3d56;}.cls-10{fill:#6c63ff;}.cls-11{fill:#231f20;isolation:isolate;opacity:0.2;}.cls-12{fill:#d1d3d4;}</style></defs><g id="Layer_2" data-name="Layer 2"><g id="Layer_1-2" data-name="Layer 1"><path class="cls-1" d="M64.77,94.49h-5v-39h4.09a.76.76,0,0,1,.75.76Z"/><path class="cls-2" d="M60.25,94.75H5.75V67h54.5Z"/><path class="cls-3" d="M38.89,94.75H6V67.24H60.25v6.21A21.36,21.36,0,0,1,38.89,94.75Z"/><path class="cls-3" d="M63.36,56.87h0a1.22,1.22,0,0,0-.07.17l-1.85,7.15-2,3.81H6v-1l3-2.86,3.54-6.79a3.2,3.2,0,0,1,.61-.8h0a3,3,0,0,1,2.08-.82H62.66a.79.79,0,0,1,.65.31A.76.76,0,0,1,63.36,56.87Z"/><path class="cls-4" d="M60.25,94.75H5.75V67h54.5Zm-54-.26H59.74v-27H6.26Z"/><polygon class="cls-1" points="62.96 60.51 61.96 64.18 9.35 64.18 11.05 61.13 62.96 60.51"/><rect class="cls-2" x="8.04" y="81.5" width="8.66" height="0.51"/><rect class="cls-2" x="8.04" y="83.28" width="8.66" height="0.51"/><rect class="cls-2" x="8.04" y="85.07" width="8.66" height="0.51"/><circle class="cls-2" cx="11.27" cy="73.15" r="3.12"/><path class="cls-1" d="M45.33,62.15H42.68V41.77h2.15a.4.4,0,0,1,.4.39Z"/><path class="cls-2" d="M43.19,62.15H14.66V47.63H43.19Z"/><path class="cls-3" d="M31.8,62.15H14.66V47.63H42.93v3.28A11.19,11.19,0,0,1,31.8,62.15Z"/><path class="cls-3" d="M44.54,42.34h0a.36.36,0,0,0,0,.09l-1,3.72-1,2H14.66v-.5l1.59-1.49,1.85-3.53a1.63,1.63,0,0,1,.31-.42h0a1.57,1.57,0,0,1,1.08-.43h24.7a.39.39,0,0,1,.39.39A.53.53,0,0,1,44.54,42.34Z"/><path class="cls-4" d="M43.19,62.15H14.66V47.63H43.19Zm-28.27-.26h28v-14h-28Z"/><polygon class="cls-1" points="44.52 44.27 44 46.1 16.32 46.1 17.22 44.57 44.52 44.27"/><rect class="cls-2" x="15.68" y="55.27" width="4.58" height="0.25"/><rect class="cls-2" x="15.68" y="56.03" width="4.58" height="0.25"/><rect class="cls-2" x="15.68" y="57.05" width="4.58" height="0.25"/><circle class="cls-2" cx="17.41" cy="50.83" r="1.63"/><path class="cls-3" d="M123.49,94.81l0-.09a10.34,10.34,0,0,1,2.19-8.41,9.94,9.94,0,0,1,1.84-1.71l.07,0,0,.07c.34.9.77,1.8,1,2.2l.14-3,.07,0A2,2,0,0,1,131,84a2,2,0,0,1,.66,2.13c-.11.35-.2.71-.3,1.06a12.73,12.73,0,0,1-1.3,3.49,6.24,6.24,0,0,1-4.55,2.88Z"/><path class="cls-1" d="M131.82,94.75a.25.25,0,0,1-.25.25H.25a.26.26,0,0,1,0-.51H131.57a.25.25,0,0,1,.25.25Z"/><path class="cls-5" d="M101.91,31.93l-3.76-.53c-1.27,2.12-1.72,7.78-1.72,7.78l-3.68,8.74a1.68,1.68,0,0,0,1.89,2.78,1.72,1.72,0,0,0,.73-1.52l6-10.17Z"/><path class="cls-4" d="M101.32,21.5h0a4,4,0,0,1,3.34,4.57,4.21,4.21,0,0,1-.18.72l-.8,2.26s-.43,6.81-2.09,8.73l-5.08-.46s.93-3.43.22-5.1c-.44-1-.42-4.53,0-7.39a4,4,0,0,1,4.57-3.33Z"/><polygon class="cls-6" points="113.73 92.2 111.49 92.2 110.42 83.54 113.74 83.54 113.73 92.2"/><path class="cls-7" d="M113.74,94.49h-6.88v-.12a2.68,2.68,0,0,1,2.68-2.68h0l1.25-1,2.35,1h.6Z"/><polygon class="cls-6" points="103.89 81.31 101.8 82.18 97.46 74.53 100.55 73.25 103.89 81.31"/><path class="cls-7" d="M104.87,83.58l-6.43,2.67,0-.08a2.7,2.7,0,0,1,1.46-3.54h0l.81-1.38,2.56,0,.56-.23Z"/><path class="cls-7" d="M116.33,42.55l-16.07,1.68-2.15,7.24-7.45,12,8.22,15.1,2.9-2.59L99,63.74l8.29-9,1.58-.65h0l1.24,33.22,4.62.08,2-36.66A11,11,0,0,0,116.33,42.55Z"/><path class="cls-8" d="M110.54,19.53l-2.64-3-4.16.47-2.67,3.73h0a5.7,5.7,0,0,0-4.34,6.53c1,6,4.56,11.74,3.39,14.68-1.76,4.47-1.87,6.29,2.35,5.67s18.37-2.07,15.63-4.82-3.35-7.32-3.35-7.32L114.64,25a4.64,4.64,0,0,0-3.73-5.42c-.12,0-.25,0-.37-.06Z"/><circle class="cls-5" cx="105.28" cy="11.18" r="4.63"/><path class="cls-7" d="M111,10.9a8,8,0,0,1-1.1,2.64,1.78,1.78,0,0,1-.6.68.65.65,0,0,1-.83-.1l-.11-.09a2.56,2.56,0,0,0,.58-.51.8.8,0,0,0,.15-.73.51.51,0,0,0-.61-.33c-.27.11-.43.5-.72.44s-.27-.35-.27-.59c0-1.24-.6-3-1.06-3A3.66,3.66,0,0,1,105,9.17,3.77,3.77,0,0,0,103.64,9h-.11a3.35,3.35,0,0,0-.3-.67,3.84,3.84,0,0,1,0,.76,6.8,6.8,0,0,1-1.16.37c-.43.06-1.37,1.34-1.41,1.21a3.14,3.14,0,0,0-.31-.67,3.88,3.88,0,0,1,0,.76v0c-.21-.28-.34-.62-.27-.36a3.42,3.42,0,0,1,.67-4,2.14,2.14,0,0,1,.83-.66,1,1,0,0,1,1,.1,3.4,3.4,0,0,1,3.38-.72c1.14.4,2,.63,2.2,1.83a2.55,2.55,0,0,1,2.44,1.19A3.84,3.84,0,0,1,111,10.9Z"/><path class="cls-9" d="M107.17,49.16h-1.58V37.44h1.3a.22.22,0,0,1,.22.23Z"/><path class="cls-2" d="M105.84,49.41H89.29V41h16.55Z"/><path class="cls-10" d="M99.32,49.41h-10V41h16.55V42.9A6.51,6.51,0,0,1,99.32,49.41Z"/><path class="cls-9" d="M107.21,37.78h0l0,0-.58,2.24L106,41.26H89.29V41l.95-.9L91.35,38a.76.76,0,0,1,.19-.25h0a.9.9,0,0,1,.64-.26H107a.24.24,0,0,1,.24.24A.19.19,0,0,1,107.21,37.78Z"/><path class="cls-9" d="M105.84,49.41H89.29V41h16.55Zm-16.3-.25h16.3V41H89.54Z"/><polygon class="cls-10" points="106.7 39.02 106.39 40.24 90.34 40.24 90.86 39.23 106.7 39.02"/><rect class="cls-2" x="90.05" y="45.34" width="2.55" height="0.25"/><rect class="cls-2" x="90.05" y="45.85" width="2.55" height="0.25"/><rect class="cls-2" x="90.05" y="46.36" width="2.55" height="0.25"/><circle class="cls-2" cx="90.97" cy="42.82" r="0.95"/><path class="cls-5" d="M113.65,30.85l-3.76-.53c-1.28,2.12-1.73,7.78-1.73,7.78l-3.68,8.74a1.68,1.68,0,1,0,2.62,1.26l6-10.17Z"/><path class="cls-4" d="M111.61,20.42h0A4,4,0,0,1,115,25a2.92,2.92,0,0,1-.18.72L114,28s1,6.81-.66,8.73l-5.08-.46s.93-3.43.22-5.1c-.44-1-.41-4.53,0-7.39C108.8,21.57,109.43,20.08,111.61,20.42Z"/><path class="cls-10" d="M79.69,9.15a7.73,7.73,0,0,0-3.47,10.38c1.9,3.83,8.8,10.35,14.3,11.33-2.37-7.18.92-14.48-.45-18.24C88.6,8.61,83.51,7.25,79.69,9.15Z"/><circle id="ae913700-e609-4a21-8232-fca89ee691a9" class="cls-2" cx="82.27" cy="15.73" r="2.52"/><circle id="e5607a81-7f0e-4105-ad7c-335322d1da37" class="cls-10" cx="90.47" cy="33.26" r="1.65"/><path class="cls-11" d="M83,13.07a2.53,2.53,0,0,1,.17,5.05h0a2.53,2.53,0,0,0-1-4.89A2.65,2.65,0,0,1,83,13.07Z"/><path class="cls-11" d="M90.08,12.63c1.37,3.75-1.92,11,.45,18.24a11.47,11.47,0,0,1-1.53-.4c-1.93-6.95,1.1-13.89-.23-17.52C87.58,9.71,84,8.19,80.68,8.75,84.35,7.49,88.74,9,90.08,12.63Z"/><path class="cls-12" d="M12.61,47.48a7.17,7.17,0,0,0-7.34,7c-.1,4,2.72,12.28,6.8,15.47,1.18-6.9,7-11.46,7.54-15.13C20.14,50.9,16.57,47.57,12.61,47.48Z"/><circle id="bacd35f3-e339-4cac-822d-9d99fa991c5b" class="cls-2" cx="11.87" cy="53.98" r="2.34"/><circle id="b2bbbf75-ebb5-482c-96b6-874581e74278" class="cls-12" cx="10.99" cy="71.9" r="1.53"/><path class="cls-11" d="M13.65,52.14a2.34,2.34,0,1,1-2,4.21h0a2.34,2.34,0,0,0,1.32-4.43A2.51,2.51,0,0,1,13.65,52.14Z"/><path class="cls-11" d="M19.62,54.83c-.51,3.67-6.36,8.22-7.54,15.13A10.05,10.05,0,0,1,11,69c1.43-6.52,6.91-10.89,7.4-14.44.44-3.18-1.82-6-4.8-7C17.15,48.14,20.11,51.23,19.62,54.83Z"/><path class="cls-6" d="M39.81,17a2.06,2.06,0,0,0-1.92,2.13,1.64,1.64,0,0,0,0,.32l-6.07,3.82,3.35,1.49,5.25-3.86a2,2,0,0,0,1.45-2A2,2,0,0,0,39.87,17h-.06Z"/><path class="cls-10" d="M34,21.55l1.51,3.1-5.95,3.83a3,3,0,0,1-2.88.19h0a2.86,2.86,0,0,1-1.57-3l1.93-11a3.06,3.06,0,0,1,3.36-2.53h0a2.9,2.9,0,0,1,2.56,3.2h0a.28.28,0,0,1,0,.09,1.7,1.7,0,0,1-.06.31l-2.11,7.83Z"/><rect class="cls-5" x="25.87" y="26.49" width="8.4" height="8.4"/><polygon class="cls-6" points="54.55 51.4 57.8 50.31 59.61 59.15 57.41 59.89 54.55 51.4"/><polygon class="cls-6" points="49.05 50.72 52.27 49.55 54.28 58.35 52.1 59.14 49.05 50.72"/><path class="cls-7" d="M26.19,37.08c-1.71,11.36,21,4.65,21,4.65l7.11,9.81,4.17-.75s-1.87-5.9-5.22-13.8c-1.49-3.51-18.37-2.65-18.37-2.65l-.35-2.75-9.66-.19Z"/><path class="cls-7" d="M42.58,42.49l5.25-3.27a102.71,102.71,0,0,1,5,11l-3.63,1Z"/><path class="cls-8" d="M31,12.54l-1.71-2.2-2.44-.11-.24,2.07-1.21.56a32.4,32.4,0,0,0-.55,14.06h0a1.24,1.24,0,0,1,.36,1.21l-.08.32h0a1.85,1.85,0,0,1,.24,1.36h0l-.58,1a2.91,2.91,0,0,0,1.12,4,2.39,2.39,0,0,0,.43.2c3.55,1.29,6.88,1.77,9.35-1.85l.77-12.58Z"/><circle class="cls-5" cx="29.25" cy="6.41" r="4.51"/><path class="cls-7" d="M27,1a3.7,3.7,0,0,0-3.39,4C22.18,6.4,21.84,13.66,23,15.59c2.17.26,3.48-5.09,5.38-4.32l.25-1.17.56,1.52c.48.22,1,.47,1.44.73A5.43,5.43,0,0,0,30,8c-.82-1.18,1.16-2.58,2.58-2.38h0l0-1.08.36,1.07a1.66,1.66,0,0,0,1.79,0h0C35.71.25,27.85-1.2,27,1Z"/><path class="cls-7" d="M56.4,61.38l1.45-.19.08-1.4.84,1.28,3.84-.5a.87.87,0,0,0,.75-1,.89.89,0,0,0-.47-.67l-3.34-1.71-.18-1.38-3.2.61Z"/><path class="cls-7" d="M52.58,61.39l1.32-.63-.37-1.36,1.2,1,3.48-1.69a.87.87,0,0,0,.4-1.16A.84.84,0,0,0,58,57l-3.71-.57-.61-1.25L50.8,56.79Z"/><path class="cls-1" d="M32.69,31.33h1.59V18.85H33a.24.24,0,0,0-.24.24Z"/><path class="cls-2" d="M34.28,22.42H51.59v8.91H34.28Z"/><path class="cls-3" d="M34.28,24.63v-2H51.59v8.66H41.09A6.76,6.76,0,0,1,34.28,24.63Z"/><path class="cls-3" d="M33.42,19.19h0a.08.08,0,0,0,0,0L34,21.48l.63,1.19H51.34v-.3l-1-.89-1.11-2.12a.79.79,0,0,0-.19-.25h0a.94.94,0,0,0-.65-.26H33.62a.23.23,0,0,0-.23.23A.2.2,0,0,0,33.42,19.19Z"/><path class="cls-4" d="M34.28,22.42H51.59v8.91H34.28Zm17.06,8.91H34.28V22.67H51.34Z"/><polygon class="cls-1" points="32.96 20.43 33.3 21.65 50.84 21.65 50.27 20.63 32.96 20.43"/><rect class="cls-2" x="48.03" y="27" width="2.8" height="0.25"/><rect class="cls-2" x="48.03" y="27.76" width="2.8" height="0.25"/><rect class="cls-2" x="48.03" y="28.27" width="2.8" height="0.25"/><circle class="cls-2" cx="49.81" cy="24.47" r="0.99"/><path class="cls-12" d="M41.81,9.5a4.39,4.39,0,0,1,4.5,4.28c.06,2.43-1.67,7.53-4.17,9.49-.72-4.24-4.31-7-4.61-9.28C37.2,11.59,39.39,9.55,41.81,9.5Z"/><circle id="fecde2e6-4a2c-4b09-ace7-bfa7eb0316c1" class="cls-2" cx="42.26" cy="13.48" r="1.43"/><circle id="ad96ff4a-d650-41fb-aeb3-38eefe479f45" class="cls-12" cx="42.8" cy="24.46" r="0.94"/><path class="cls-11" d="M41.17,12.35a1.44,1.44,0,0,0,1.26,2.58,1.43,1.43,0,0,1-.82-2.71A1.39,1.39,0,0,0,41.17,12.35Z"/><path class="cls-11" d="M37.52,14c.31,2.25,3.9,5,4.62,9.27a7.57,7.57,0,0,0,.66-.61c-.88-4-4.24-6.67-4.54-8.85A4.08,4.08,0,0,1,41.2,9.55,4.18,4.18,0,0,0,37.52,14Z"/><path class="cls-6" d="M39.26,21.41a2.07,2.07,0,0,0-2.2,1.84,1.82,1.82,0,0,0,0,.33l-6.54,2.94,3.12,1.94,5.73-3.09a2.06,2.06,0,0,0,1.72-1.82,2,2,0,0,0-1.78-2.14Z"/><path class="cls-8" d="M32.84,25.09l1,3.28-6.41,3a3,3,0,0,1-2.88-.21h0a2.85,2.85,0,0,1-1.14-3.21L26.9,17.28a3.06,3.06,0,0,1,3.68-2h0a2.89,2.89,0,0,1,2.09,3.52h0a.29.29,0,0,1,0,.09c0,.1-.06.2-.1.3l-3.18,7.46Z"/></g></g></svg>